
Genre: Action | Biography | Drama
 Language:Mandarin
  
http://www.imdb.com/title/tt1648093/

 Source:DVD
 Subtitles:Romana/English
 

Format : MPEG-4
 Format profile : Base Media
 Codec ID : isom
 File size : 1.16 GiB
 Duration : 1h 44mn
 Overall bit rate : 1 578 Kbps
 
Video
 ID : 1
 Format : AVC
 Format/Info : Advanced Video Codec
 Format profile : High@L4.1
 Format settings, CABAC : Yes
 Format settings, ReFrames : 3 frames
 Codec ID : avc1
 Codec ID/Info : Advanced Video Coding
 Duration : 1h 44mn
 Bit rate mode : Variable
 Bit rate : 1 362 Kbps
 Maximum bit rate : 9 793 Kbps
 Width : 720 pixels
 Height : 304 pixels
 Display aspect ratio : 2.35:1
 Frame rate mode : Constant
 Frame rate : 29.970 fps
 Color space : YUV
 Chroma subsampling : 4:2:0
 Bit depth : 8 bits
 Scan type : Progressive
 Bits/(Pixel*Frame) : 0.208
 Stream size : 1 013 MiB (86%)
 Writing library : x264
 
Audio
 ID : 2
 Format : AAC
 Format/Info : Advanced Audio Codec
 Format version : Version 4
 Format profile : LC
 Format settings, SBR : No
 Codec ID : 40
 Duration : 1h 44mn
 Bit rate mode : Variable
 Bit rate : 224 Kbps
 Maximum bit rate : 285 Kbps
 Channel(s) : 2 channels
 Channel positions : Front: L R
 Sampling rate : 48.0 KHz
 Stream size : 168 MiB (14%)
 
Plot:
 A tyrant forces the greatest warrior in the land to battle his greatest friend by holding the woman they both love hostage.
 
http://www.pix2links.com/images/56259289912607618977.png7
 
http://www.pix2links.com/images/31304267171550859861.png
 
http://www.pix2links.com/images/88275939673168129053.png
 
http://www.pix2links.com/images/64208706465362085906.png
 
